<svg width="100" height="108" xmlns="http://www.w3.org/2000/svg"><g fill="#36404A" fill-rule="evenodd"><path d="M99.118 35.901c-.588-5.56-4.704-12.808-9.146-16.107 0 0-6.64-4.93-14.972-9.822-8.34-4.895-15.856-8.275-15.856-8.275C56.63.566 53.314 0 49.998 0c-3.314 0-6.63.566-9.144 1.697 0 0-7.519 3.38-15.856 8.275-8.334 4.892-14.971 9.822-14.971 9.822C5.586 23.093 1.468 30.34.88 35.9.88 35.901 0 44.212 0 54c0 9.787.882 18.099.882 18.099.587 5.56 4.706 12.807 9.144 16.104 0 0 6.639 4.932 14.974 9.829 8.337 4.892 15.856 8.275 15.856 8.275C43.37 107.438 46.686 108 50 108c3.316 0 6.632-.563 9.146-1.694 0 0 7.516-3.383 15.856-8.275 8.331-4.896 14.971-9.828 14.971-9.828 4.443-3.297 8.559-10.544 9.147-16.104 0 0 .88-8.312.88-18.099 0-9.788-.88-18.099-.88-18.099h-.002zm-4.586 35.714c-.457 4.322-3.876 10.349-7.316 12.902-.064.05-6.555 4.855-14.557 9.556-8.006 4.698-15.34 8.013-15.409 8.044-1.827.818-4.468 1.288-7.252 1.288s-5.427-.47-7.248-1.288c-.073-.03-7.385-3.334-15.412-8.042-8.002-4.704-14.495-9.51-14.56-9.556-3.439-2.553-6.855-8.583-7.314-12.9C5.46 71.536 4.61 63.413 4.61 54c0-9.407.85-17.533.855-17.615.46-4.32 3.875-10.349 7.318-12.905.063-.047 6.528-4.837 14.556-9.546 8.002-4.7 15.34-8.014 15.41-8.047 1.824-.82 4.465-1.29 7.249-1.29s5.426.47 7.247 1.29c.077.033 7.384 3.334 15.415 8.047 8.002 4.697 14.495 9.5 14.556 9.548 3.44 2.552 6.859 8.583 7.316 12.902.011.08.856 8.21.856 17.615 0 9.412-.846 17.535-.857 17.616h.002z"/><path d="M67.208 71.525c1.339 6.667-5.33 8.113-8.268 7.245-2.937-.868-8.929-1.012-8.929-1.012s-6.008.144-8.946 1.012c-2.937.874-9.612-.578-8.28-7.245 1.334-6.667 7.209-6.378 8.819-15.365 1.605-8.988 8.413-8.409 8.413-8.409s6.79-.579 8.396 8.409c1.599 8.987 7.463 8.698 8.795 15.365zM56.175 47.166c3.615 1.134 7.607-1.965 8.923-6.92 1.316-4.948-.544-9.88-4.159-11.012-3.615-1.134-7.607 1.965-8.923 6.92-1.316 4.948.544 9.88 4.159 11.012zm14.982-1.802c-3.482-1.543-7.758 1.073-9.551 5.847-1.794 4.774-.428 9.892 3.054 11.429 3.481 1.537 7.757-1.073 9.55-5.847 1.794-4.774.428-9.886-3.053-11.429zM43.82 47.166c3.615-1.133 5.475-6.064 4.159-11.012-1.316-4.95-5.314-8.047-8.924-6.914-3.61 1.133-5.475 6.064-4.159 11.013 1.316 4.948 5.309 8.047 8.924 6.913zM35.34 62.64c3.482-1.543 4.848-6.661 3.054-11.429-1.793-4.768-6.069-7.39-9.55-5.847-3.482 1.543-4.848 6.66-3.055 11.429 1.794 4.774 6.07 7.39 9.551 5.847z" fill-rule="nonzero"/></g></svg>