<svg width="100" height="108" xmlns="http://www.w3.org/2000/svg"><g fill="#36404A" fill-rule="evenodd"><path d="M99.118 35.901c-.588-5.56-4.704-12.808-9.146-16.107 0 0-6.64-4.93-14.972-9.822-8.34-4.895-15.856-8.275-15.856-8.275C56.63.566 53.314 0 49.998 0c-3.314 0-6.63.566-9.144 1.697 0 0-7.519 3.38-15.856 8.275-8.334 4.892-14.971 9.822-14.971 9.822C5.586 23.093 1.468 30.34.88 35.9.88 35.901 0 44.212 0 54c0 9.787.882 18.099.882 18.099.587 5.56 4.706 12.807 9.144 16.104 0 0 6.639 4.932 14.974 9.829 8.337 4.892 15.856 8.275 15.856 8.275C43.37 107.438 46.686 108 50 108c3.316 0 6.632-.563 9.146-1.694 0 0 7.516-3.383 15.856-8.275 8.331-4.896 14.971-9.828 14.971-9.828 4.443-3.297 8.559-10.544 9.147-16.104 0 0 .88-8.312.88-18.099 0-9.788-.88-18.099-.88-18.099h-.002zm-4.586 35.714c-.457 4.322-3.876 10.349-7.316 12.902-.064.05-6.555 4.855-14.557 9.556-8.006 4.698-15.34 8.013-15.409 8.044-1.827.818-4.468 1.288-7.252 1.288s-5.427-.47-7.248-1.288c-.073-.03-7.385-3.334-15.412-8.042-8.002-4.704-14.495-9.51-14.56-9.556-3.439-2.553-6.855-8.583-7.314-12.9C5.46 71.536 4.61 63.413 4.61 54c0-9.407.85-17.533.855-17.615.46-4.32 3.875-10.349 7.318-12.905.063-.047 6.528-4.837 14.556-9.546 8.002-4.7 15.34-8.014 15.41-8.047 1.824-.82 4.465-1.29 7.249-1.29s5.426.47 7.247 1.29c.077.033 7.384 3.334 15.415 8.047 8.002 4.697 14.495 9.5 14.556 9.548 3.44 2.552 6.859 8.583 7.316 12.902.011.08.856 8.21.856 17.615 0 9.412-.846 17.535-.857 17.616h.002z"/><path d="M50.002 27C39.496 27 31 35.496 31 46.002c0 14.25 19.002 35.288 19.002 35.288s19.001-21.037 19.001-35.288C69.003 35.496 60.507 27 50.002 27zm0 25.788a6.789 6.789 0 0 1-6.787-6.786 6.789 6.789 0 0 1 6.787-6.787 6.789 6.789 0 0 1 6.786 6.787 6.789 6.789 0 0 1-6.786 6.786z" fill-rule="nonzero"/></g></svg>