<svg viewBox="0 0 101 109" xmlns="http://www.w3.org/2000/svg"><g fill-rule="nonzero" fill="none"><path d="M100 36.2c-.6-5.6-4.7-12.9-9.2-16.2 0 0-6.7-5-15.1-9.9-8.4-4.9-15.9-8.3-15.9-8.3C57.3.6 54 0 50.7 0s-6.7.6-9.2 1.7c0 0-7.6 3.4-15.9 8.3-8.4 4.9-15.1 9.9-15.1 9.9C6 23.3 1.8 30.6 1.3 36.2c0 0-.9 8.4-.9 18.2 0 9.9.9 18.2.9 18.2.6 5.6 4.7 12.9 9.2 16.2 0 0 6.7 5 15.1 9.9 8.4 4.9 15.9 8.3 15.9 8.3 2.5 1.1 5.9 1.7 9.2 1.7 3.3 0 6.7-.6 9.2-1.7 0 0 7.6-3.4 15.9-8.3 8.4-4.9 15.1-9.9 15.1-9.9 4.5-3.3 8.6-10.6 9.2-16.2 0 0 .9-8.4.9-18.2-.1-9.8-1-18.2-1-18.2zm-4.6 36c-.5 4.4-3.9 10.4-7.4 13-.1 0-6.6 4.9-14.6 9.6-8 4.7-15.4 8.1-15.5 8.1-1.8.8-4.5 1.3-7.3 1.3s-5.5-.5-7.3-1.3c-.1 0-7.4-3.4-15.5-8.1-8-4.7-14.6-9.6-14.6-9.6-3.5-2.6-6.9-8.7-7.4-13 0-.1-.9-8.3-.9-17.8s.9-17.7.9-17.8c.5-4.4 3.9-10.4 7.4-13 .1 0 6.6-4.9 14.6-9.6 8-4.7 15.4-8.1 15.5-8.1 1.8-.8 4.5-1.3 7.3-1.3s5.5.5 7.3 1.3c.1 0 7.4 3.4 15.5 8.1 8 4.7 14.6 9.6 14.6 9.6 3.5 2.6 6.9 8.7 7.4 13 0 .1.9 8.3.9 17.8s-.9 17.7-.9 17.8z" fill="rgba(255, 255, 255, .4)"/><path d="M50.7 55.4c-.6 0-1.2-.3-1.6-.8-.2-.2-4.6-6.1-4.6-13.4 0-9 3.4-10.9 6.2-10.9 2.8 0 6.2 1.9 6.2 10.9 0 7.3-4.4 13.2-4.6 13.4-.4.5-1 .8-1.6.8zm0-21.1c-1.4 0-2.2 2.6-2.2 6.9 0 3.3 1.2 6.4 2.2 8.4 1-2 2.2-5.1 2.2-8.4 0-4.4-.9-6.9-2.2-6.9z" fill="rgba(255, 255, 255, .4)"/><path d="M46.4 64.2c0-2.3 1.9-4.2 4.2-4.2 2.3 0 4.2 1.9 4.2 4.2 0 2.3-1.9 4.2-4.2 4.2-2.3 0-4.2-1.8-4.2-4.2z"/><path d="M50.7 70.4c-3.4 0-6.2-2.8-6.2-6.2 0-3.4 2.8-6.2 6.2-6.2 3.4 0 6.2 2.8 6.2 6.2 0 3.4-2.8 6.2-6.2 6.2zm0-8.4c-1.2 0-2.2 1-2.2 2.2 0 1.2 1 2.2 2.2 2.2 1.2 0 2.2-1 2.2-2.2 0-1.2-1-2.2-2.2-2.2z" fill="rgba(255, 255, 255, .4)"/><path d="M77 78.4H24.3c-3.5 0-6.5-1.8-8.2-4.9-1.6-3.1-1.4-6.6.5-9.5l26.3-42.5c1.8-2.6 4.6-4.1 7.7-4.1 3.1 0 6 1.5 7.7 4.1l26.4 42.6c1.9 2.8 2.1 6.4.5 9.4-1.7 3.1-4.8 4.9-8.2 4.9zM50.7 21.5c-1.8 0-3.4.8-4.4 2.3L20 66.2v.1c-1.1 1.6-1.2 3.7-.3 5.4.9 1.7 2.7 2.8 4.6 2.8H77c2 0 3.7-1 4.6-2.8.9-1.7.8-3.8-.3-5.4L55 23.7c-1-1.4-2.6-2.2-4.3-2.2z" fill="rgba(255, 255, 255, .4)"/></g></svg>